<svg xmlns="http://www.w3.org/2000/svg" xmlns:xlink="http://www.w3.org/1999/xlink" width="400" zoomAndPan="magnify" viewBox="0 0 300 149.999998" height="200" preserveAspectRatio="xMidYMid meet" version="1.0"><defs><g/><clipPath id="b4ff9a6a4e"><path d="M 44.453125 40 L 110.453125 40 L 110.453125 115.742188 L 44.453125 115.742188 Z M 44.453125 40 " clip-rule="nonzero"/></clipPath></defs><g clip-path="url(#b4ff9a6a4e)"><path fill="#ff66d8" d="M 49.804688 90.9375 C 55.699219 99.953125 65.890625 105.921875 77.453125 105.921875 C 95.648438 105.921875 110.453125 91.140625 110.453125 72.972656 C 110.453125 54.800781 95.648438 40.019531 77.453125 40.019531 C 59.257812 40.019531 44.453125 54.800781 44.453125 72.972656 L 44.453125 115.71875 L 49.804688 115.71875 Z M 85.480469 72.972656 C 85.480469 68.550781 89.078125 64.957031 93.507812 64.957031 C 97.933594 64.957031 101.53125 68.550781 101.53125 72.972656 C 101.53125 77.390625 97.933594 80.984375 93.507812 80.984375 C 89.078125 80.984375 85.480469 77.390625 85.480469 72.972656 Z M 85.480469 89 C 85.480469 93.421875 81.878906 97.015625 77.453125 97.015625 C 73.027344 97.015625 69.425781 93.421875 69.425781 89 C 69.425781 84.582031 73.027344 80.984375 77.453125 80.984375 C 81.878906 80.984375 85.480469 84.582031 85.480469 89 Z M 77.453125 64.957031 C 73.027344 64.957031 69.425781 61.359375 69.425781 56.941406 C 69.425781 52.523438 73.027344 48.925781 77.453125 48.925781 C 81.878906 48.925781 85.480469 52.523438 85.480469 56.941406 C 85.480469 61.359375 81.878906 64.957031 77.453125 64.957031 Z M 69.425781 72.972656 C 69.425781 77.390625 65.824219 80.984375 61.398438 80.984375 C 56.972656 80.984375 53.371094 77.390625 53.371094 72.972656 C 53.371094 68.550781 56.972656 64.957031 61.398438 64.957031 C 65.824219 64.957031 69.425781 68.550781 69.425781 72.972656 Z M 69.425781 72.972656 " fill-opacity="1" fill-rule="nonzero"/></g><g fill="#000000" fill-opacity="1"><g transform="translate(123.190483, 68.938471)"><g><path d="M 2.1875 -19.28125 L 6.546875 -19.28125 L 7.09375 -17.09375 L 7.28125 -17.09375 C 7.832031 -17.914062 8.472656 -18.546875 9.203125 -18.984375 C 9.929688 -19.421875 10.804688 -19.640625 11.828125 -19.640625 C 12.648438 -19.640625 13.359375 -19.53125 13.953125 -19.3125 C 14.546875 -19.09375 15.050781 -18.828125 15.46875 -18.515625 C 15.894531 -18.203125 16.234375 -17.863281 16.484375 -17.5 C 16.742188 -17.132812 16.945312 -16.816406 17.09375 -16.546875 L 17.28125 -16.546875 C 17.425781 -16.816406 17.644531 -17.132812 17.9375 -17.5 C 18.226562 -17.863281 18.613281 -18.203125 19.09375 -18.515625 C 19.582031 -18.828125 20.148438 -19.09375 20.796875 -19.3125 C 21.453125 -19.53125 22.21875 -19.640625 23.09375 -19.640625 C 24.132812 -19.640625 25.09375 -19.460938 25.96875 -19.109375 C 26.84375 -18.765625 27.585938 -18.265625 28.203125 -17.609375 C 28.828125 -16.953125 29.3125 -16.148438 29.65625 -15.203125 C 30.007812 -14.253906 30.1875 -13.1875 30.1875 -12 L 30.1875 0 L 25.09375 0 L 25.09375 -11.28125 C 25.09375 -11.957031 25.007812 -12.535156 24.84375 -13.015625 C 24.675781 -13.503906 24.445312 -13.898438 24.15625 -14.203125 C 23.863281 -14.503906 23.515625 -14.726562 23.109375 -14.875 C 22.710938 -15.019531 22.285156 -15.09375 21.828125 -15.09375 C 21.003906 -15.09375 20.28125 -14.773438 19.65625 -14.140625 C 19.039062 -13.515625 18.734375 -12.5625 18.734375 -11.28125 L 18.734375 0 L 13.640625 0 L 13.640625 -11.28125 C 13.640625 -11.957031 13.550781 -12.535156 13.375 -13.015625 C 13.207031 -13.503906 12.976562 -13.898438 12.6875 -14.203125 C 12.40625 -14.503906 12.0625 -14.726562 11.65625 -14.875 C 11.257812 -15.019531 10.828125 -15.09375 10.359375 -15.09375 C 9.535156 -15.09375 8.816406 -14.753906 8.203125 -14.078125 C 7.585938 -13.398438 7.28125 -12.46875 7.28125 -11.28125 L 7.28125 0 L 2.1875 0 Z M 2.1875 -19.28125 "/></g></g></g><g fill="#000000" fill-opacity="1"><g transform="translate(154.468009, 68.938471)"><g><path d="M 7.671875 0 L -0.1875 -19.28125 L 5.453125 -19.28125 L 10.1875 -6.734375 L 10.328125 -6.734375 L 14.90625 -19.28125 L 20.546875 -19.28125 L 10 7.28125 L 4.734375 7.28125 Z M 7.671875 0 "/></g></g></g><g fill="#000000" fill-opacity="1"><g transform="translate(173.920223, 68.938471)"><g/></g></g><g fill="#000000" fill-opacity="1"><g transform="translate(123.190483, 101.519158)"><g><path d="M 2.1875 -19.28125 L 6.546875 -19.28125 L 7.09375 -17.09375 L 7.28125 -17.09375 C 7.832031 -17.914062 8.472656 -18.546875 9.203125 -18.984375 C 9.929688 -19.421875 10.804688 -19.640625 11.828125 -19.640625 C 12.648438 -19.640625 13.359375 -19.53125 13.953125 -19.3125 C 14.546875 -19.09375 15.050781 -18.828125 15.46875 -18.515625 C 15.894531 -18.203125 16.234375 -17.863281 16.484375 -17.5 C 16.742188 -17.132812 16.945312 -16.816406 17.09375 -16.546875 L 17.28125 -16.546875 C 17.425781 -16.816406 17.644531 -17.132812 17.9375 -17.5 C 18.226562 -17.863281 18.613281 -18.203125 19.09375 -18.515625 C 19.582031 -18.828125 20.148438 -19.09375 20.796875 -19.3125 C 21.453125 -19.53125 22.21875 -19.640625 23.09375 -19.640625 C 24.132812 -19.640625 25.09375 -19.460938 25.96875 -19.109375 C 26.84375 -18.765625 27.585938 -18.265625 28.203125 -17.609375 C 28.828125 -16.953125 29.3125 -16.148438 29.65625 -15.203125 C 30.007812 -14.253906 30.1875 -13.1875 30.1875 -12 L 30.1875 0 L 25.09375 0 L 25.09375 -11.28125 C 25.09375 -11.957031 25.007812 -12.535156 24.84375 -13.015625 C 24.675781 -13.503906 24.445312 -13.898438 24.15625 -14.203125 C 23.863281 -14.503906 23.515625 -14.726562 23.109375 -14.875 C 22.710938 -15.019531 22.285156 -15.09375 21.828125 -15.09375 C 21.003906 -15.09375 20.28125 -14.773438 19.65625 -14.140625 C 19.039062 -13.515625 18.734375 -12.5625 18.734375 -11.28125 L 18.734375 0 L 13.640625 0 L 13.640625 -11.28125 C 13.640625 -11.957031 13.550781 -12.535156 13.375 -13.015625 C 13.207031 -13.503906 12.976562 -13.898438 12.6875 -14.203125 C 12.40625 -14.503906 12.0625 -14.726562 11.65625 -14.875 C 11.257812 -15.019531 10.828125 -15.09375 10.359375 -15.09375 C 9.535156 -15.09375 8.816406 -14.753906 8.203125 -14.078125 C 7.585938 -13.398438 7.28125 -12.46875 7.28125 -11.28125 L 7.28125 0 L 2.1875 0 Z M 2.1875 -19.28125 "/></g></g></g><g fill="#000000" fill-opacity="1"><g transform="translate(154.468009, 101.519158)"><g><path d="M 10.734375 0.359375 C 9.273438 0.359375 7.960938 0.132812 6.796875 -0.3125 C 5.640625 -0.757812 4.644531 -1.40625 3.8125 -2.25 C 2.988281 -3.101562 2.359375 -4.144531 1.921875 -5.375 C 1.484375 -6.613281 1.265625 -8.035156 1.265625 -9.640625 C 1.265625 -11.242188 1.484375 -12.660156 1.921875 -13.890625 C 2.359375 -15.128906 2.988281 -16.171875 3.8125 -17.015625 C 4.644531 -17.867188 5.640625 -18.519531 6.796875 -18.96875 C 7.960938 -19.414062 9.273438 -19.640625 10.734375 -19.640625 C 12.179688 -19.640625 13.488281 -19.414062 14.65625 -18.96875 C 15.820312 -18.519531 16.816406 -17.867188 17.640625 -17.015625 C 18.460938 -16.171875 19.09375 -15.128906 19.53125 -13.890625 C 19.96875 -12.660156 20.1875 -11.242188 20.1875 -9.640625 C 20.1875 -8.035156 19.96875 -6.613281 19.53125 -5.375 C 19.09375 -4.144531 18.460938 -3.101562 17.640625 -2.25 C 16.816406 -1.40625 15.820312 -0.757812 14.65625 -0.3125 C 13.488281 0.132812 12.179688 0.359375 10.734375 0.359375 Z M 10.734375 -4.1875 C 11.316406 -4.1875 11.875 -4.285156 12.40625 -4.484375 C 12.9375 -4.691406 13.398438 -5.019531 13.796875 -5.46875 C 14.203125 -5.914062 14.519531 -6.484375 14.75 -7.171875 C 14.976562 -7.867188 15.09375 -8.691406 15.09375 -9.640625 C 15.09375 -10.585938 14.976562 -11.40625 14.75 -12.09375 C 14.519531 -12.78125 14.203125 -13.347656 13.796875 -13.796875 C 13.398438 -14.253906 12.9375 -14.582031 12.40625 -14.78125 C 11.875 -14.988281 11.316406 -15.09375 10.734375 -15.09375 C 10.148438 -15.09375 9.585938 -14.988281 9.046875 -14.78125 C 8.515625 -14.582031 8.050781 -14.253906 7.65625 -13.796875 C 7.257812 -13.347656 6.941406 -12.78125 6.703125 -12.09375 C 6.472656 -11.40625 6.359375 -10.585938 6.359375 -9.640625 C 6.359375 -8.691406 6.472656 -7.867188 6.703125 -7.171875 C 6.941406 -6.484375 7.257812 -5.914062 7.65625 -5.46875 C 8.050781 -5.019531 8.515625 -4.691406 9.046875 -4.484375 C 9.585938 -4.285156 10.148438 -4.1875 10.734375 -4.1875 Z M 10.734375 -4.1875 "/></g></g></g><g fill="#000000" fill-opacity="1"><g transform="translate(175.016612, 101.519158)"><g><path d="M 0 -19.28125 L 5.453125 -19.28125 L 9.828125 -5.28125 L 10 -5.28125 L 14.375 -19.28125 L 19.828125 -19.28125 L 13.09375 0 L 6.734375 0 Z M 0 -19.28125 "/></g></g></g><g fill="#000000" fill-opacity="1"><g transform="translate(193.928598, 101.519158)"><g><path d="M 2.1875 -19.28125 L 7.28125 -19.28125 L 7.28125 0 L 2.1875 0 Z M 4.734375 -21.28125 C 3.898438 -21.28125 3.203125 -21.554688 2.640625 -22.109375 C 2.085938 -22.671875 1.8125 -23.363281 1.8125 -24.1875 C 1.8125 -25.007812 2.085938 -25.695312 2.640625 -26.25 C 3.203125 -26.8125 3.898438 -27.09375 4.734375 -27.09375 C 5.554688 -27.09375 6.242188 -26.8125 6.796875 -26.25 C 7.359375 -25.695312 7.640625 -25.007812 7.640625 -24.1875 C 7.640625 -23.363281 7.359375 -22.671875 6.796875 -22.109375 C 6.242188 -21.554688 5.554688 -21.28125 4.734375 -21.28125 Z M 4.734375 -21.28125 "/></g></g></g><g fill="#000000" fill-opacity="1"><g transform="translate(202.475368, 101.519158)"><g><path d="M 10.734375 0.359375 C 9.273438 0.359375 7.960938 0.132812 6.796875 -0.3125 C 5.640625 -0.757812 4.644531 -1.40625 3.8125 -2.25 C 2.988281 -3.101562 2.359375 -4.144531 1.921875 -5.375 C 1.484375 -6.613281 1.265625 -8.035156 1.265625 -9.640625 C 1.265625 -11.242188 1.484375 -12.660156 1.921875 -13.890625 C 2.359375 -15.128906 2.988281 -16.171875 3.8125 -17.015625 C 4.644531 -17.867188 5.640625 -18.519531 6.796875 -18.96875 C 7.960938 -19.414062 9.273438 -19.640625 10.734375 -19.640625 C 12.140625 -19.640625 13.410156 -19.398438 14.546875 -18.921875 C 15.691406 -18.453125 16.671875 -17.785156 17.484375 -16.921875 C 18.296875 -16.066406 18.914062 -15.050781 19.34375 -13.875 C 19.78125 -12.695312 20 -11.40625 20 -10 C 20 -9.738281 19.988281 -9.484375 19.96875 -9.234375 C 19.945312 -8.992188 19.921875 -8.773438 19.890625 -8.578125 C 19.867188 -8.359375 19.847656 -8.164062 19.828125 -8 L 6.546875 -8 C 6.742188 -6.90625 7.164062 -5.992188 7.8125 -5.265625 C 8.46875 -4.546875 9.441406 -4.1875 10.734375 -4.1875 C 11.722656 -4.1875 12.453125 -4.347656 12.921875 -4.671875 C 13.398438 -5.003906 13.820312 -5.445312 14.1875 -6 L 19.640625 -6 C 19.421875 -5.175781 19.085938 -4.378906 18.640625 -3.609375 C 18.191406 -2.847656 17.609375 -2.171875 16.890625 -1.578125 C 16.179688 -0.984375 15.316406 -0.507812 14.296875 -0.15625 C 13.273438 0.1875 12.085938 0.359375 10.734375 0.359375 Z M 14.734375 -11.828125 C 14.640625 -12.234375 14.488281 -12.628906 14.28125 -13.015625 C 14.070312 -13.410156 13.800781 -13.765625 13.46875 -14.078125 C 13.144531 -14.390625 12.753906 -14.632812 12.296875 -14.8125 C 11.835938 -15 11.316406 -15.09375 10.734375 -15.09375 C 9.546875 -15.09375 8.617188 -14.773438 7.953125 -14.140625 C 7.285156 -13.515625 6.816406 -12.742188 6.546875 -11.828125 Z M 14.734375 -11.828125 "/></g></g></g><g fill="#000000" fill-opacity="1"><g transform="translate(222.842136, 101.519158)"><g><path d="M 9.28125 0.359375 C 7.875 0.359375 6.660156 0.191406 5.640625 -0.140625 C 4.617188 -0.484375 3.769531 -0.945312 3.09375 -1.53125 C 2.414062 -2.113281 1.890625 -2.785156 1.515625 -3.546875 C 1.140625 -4.304688 0.878906 -5.125 0.734375 -6 L 6.1875 -6 C 6.28125 -5.539062 6.585938 -5.125 7.109375 -4.75 C 7.628906 -4.375 8.351562 -4.1875 9.28125 -4.1875 C 10.539062 -4.1875 11.398438 -4.335938 11.859375 -4.640625 C 12.316406 -4.941406 12.546875 -5.273438 12.546875 -5.640625 C 12.546875 -6.117188 12.269531 -6.46875 11.71875 -6.6875 C 11.175781 -6.90625 10.492188 -7.097656 9.671875 -7.265625 C 8.847656 -7.441406 7.957031 -7.625 7 -7.8125 C 6.039062 -8.007812 5.148438 -8.332031 4.328125 -8.78125 C 3.503906 -9.226562 2.816406 -9.847656 2.265625 -10.640625 C 1.722656 -11.429688 1.453125 -12.492188 1.453125 -13.828125 C 1.453125 -14.648438 1.617188 -15.410156 1.953125 -16.109375 C 2.296875 -16.816406 2.796875 -17.429688 3.453125 -17.953125 C 4.109375 -18.472656 4.921875 -18.882812 5.890625 -19.1875 C 6.859375 -19.488281 7.988281 -19.640625 9.28125 -19.640625 C 10.632812 -19.640625 11.804688 -19.484375 12.796875 -19.171875 C 13.796875 -18.859375 14.628906 -18.425781 15.296875 -17.875 C 15.960938 -17.332031 16.484375 -16.695312 16.859375 -15.96875 C 17.234375 -15.238281 17.492188 -14.460938 17.640625 -13.640625 L 12.1875 -13.640625 C 12.09375 -14.003906 11.835938 -14.335938 11.421875 -14.640625 C 11.003906 -14.941406 10.289062 -15.09375 9.28125 -15.09375 C 8.445312 -15.09375 7.8125 -14.972656 7.375 -14.734375 C 6.945312 -14.492188 6.734375 -14.191406 6.734375 -13.828125 C 6.734375 -13.335938 7.003906 -12.984375 7.546875 -12.765625 C 8.085938 -12.546875 8.769531 -12.351562 9.59375 -12.1875 C 10.425781 -12.019531 11.320312 -11.835938 12.28125 -11.640625 C 13.238281 -11.441406 14.128906 -11.117188 14.953125 -10.671875 C 15.773438 -10.222656 16.457031 -9.601562 17 -8.8125 C 17.550781 -8.03125 17.828125 -6.972656 17.828125 -5.640625 C 17.828125 -4.859375 17.6875 -4.109375 17.40625 -3.390625 C 17.125 -2.679688 16.65625 -2.046875 16 -1.484375 C 15.34375 -0.929688 14.460938 -0.484375 13.359375 -0.140625 C 12.265625 0.191406 10.90625 0.359375 9.28125 0.359375 Z M 9.28125 0.359375 "/></g></g></g></svg>